<svg width="248" height="249" viewBox="0 0 248 249" fill="none" xmlns="http://www.w3.org/2000/svg">
<path d="M116.687 0.219641C184.816 -3.80636 243.39 47.9946 247.742 116.121C252.094 184.247 200.587 243.083 132.499 247.763C63.9477 252.474 4.63772 200.527 0.256717 131.938C-4.12428 63.3476 48.0927 4.27364 116.687 0.219641ZM133.239 237.897C195.809 232.822 242.509 178.113 237.714 115.506C232.919 52.8986 178.432 5.94365 115.819 10.4616C52.8107 15.0076 5.50573 69.9266 10.3317 132.93C15.1567 195.933 70.2737 243.004 133.239 237.897Z" fill="#4A4A4A"/>
<path d="M116.292 54.3165C131.493 51.7605 147.802 56.6776 160.288 65.2876C175.141 75.5286 185.741 92.6176 188.76 110.374C192.104 130.04 187.959 151.325 176.171 167.531C165.441 182.282 149.877 190.78 132.022 193.569C116.432 195.169 100.883 191.985 87.7568 183.241C73.0248 173.427 63.0108 156.724 59.7608 139.472C56.2378 120.768 59.3618 99.0146 70.2438 83.1636C81.1318 67.3056 97.5958 57.7055 116.292 54.3165ZM132.48 182.208C164.374 177.542 186.453 147.906 181.804 116.002C177.155 84.0985 147.538 61.9986 115.64 66.6326C83.7188 71.2706 61.6058 100.921 66.2578 132.847C70.9098 164.773 100.564 186.877 132.48 182.208Z" fill="#4A4A4A"/>
<path d="M53.8998 44.2096C62.1338 41.2966 71.1748 45.5747 74.1478 53.7887C77.1208 62.0027 72.9128 71.0777 64.7218 74.1127C59.9888 75.8667 54.7048 75.2677 50.4838 72.4997C46.2628 69.7317 43.6068 65.1227 43.3268 60.0817C42.9358 53.0297 47.2428 46.5646 53.8998 44.2096ZM61.3028 65.8097C64.9208 64.7937 67.0478 61.0567 66.0748 57.4267C65.1018 53.7967 61.3898 51.6257 57.7498 52.5567C55.3578 53.1687 53.4788 55.0196 52.8308 57.4036C52.1828 59.7876 52.8658 62.3346 54.6198 64.0746C56.3728 65.8136 58.9258 66.4767 61.3028 65.8097Z" fill="#4A4A4A"/>
<path d="M184.167 173.935C192.504 171.568 201.196 176.334 203.684 184.637C206.173 192.94 201.535 201.703 193.272 204.313C187.817 206.036 181.858 204.686 177.678 200.782C173.497 196.878 171.743 191.024 173.087 185.464C174.431 179.903 178.665 175.497 184.167 173.935ZM190.495 196.239C194.28 195.037 196.367 190.988 195.151 187.208C193.935 183.428 189.879 181.356 186.104 182.587C182.351 183.812 180.294 187.841 181.503 191.6C182.712 195.359 186.732 197.433 190.495 196.239Z" fill="#4A4A4A"/>
<path d="M186.747 43.7036C189.441 43.8906 192.337 44.1606 194.871 45.1666C198.793 46.7226 202.145 49.9566 203.721 53.8786C205.269 57.7876 205.092 62.1696 203.234 65.9416C200.707 71.0976 196.45 73.2156 191.303 75.1236C188.056 74.9946 184.894 74.5506 181.96 73.0646C176.257 70.1766 174.112 65.0856 172.245 59.2966C172.844 56.1896 173.83 53.1496 174.707 50.1116C178.596 46.4936 181.534 44.8076 186.747 43.7036ZM191.811 65.4876C195.292 63.8786 196.866 59.7936 195.365 56.2636C193.864 52.7336 189.831 51.0346 186.258 52.4266C183.846 53.3656 182.137 55.5436 181.797 58.1096C181.457 60.6756 182.54 63.2236 184.624 64.7586C186.708 66.2936 189.461 66.5736 191.811 65.4876Z" fill="#4A4A4A"/>
<path d="M58.8417 173.508C67.4147 173.208 74.6477 179.834 75.0997 188.402C75.5527 196.971 69.0577 204.322 60.5007 204.928C54.8287 205.329 49.3807 202.636 46.2537 197.886C43.1257 193.135 42.8057 187.066 45.4147 182.012C48.0247 176.958 53.1577 173.707 58.8417 173.508ZM61.2237 195.996C65.0077 195.023 67.2757 191.154 66.2777 187.376C65.2807 183.597 61.3987 181.353 57.6277 182.375C53.8907 183.388 51.6717 187.228 52.6597 190.973C53.6487 194.718 57.4737 196.962 61.2237 195.996Z" fill="#4A4A4A"/>
</svg>
