<svg width="242" height="80" viewBox="0 0 242 80" fill="none" xmlns="http://www.w3.org/2000/svg">
<path d="M11.856 1.15871L143.268 0.980613C172.586 0.965113 202.449 -0.245486 231.665 2.13681C234.704 4.13311 237.298 5.91202 239.193 9.11662C242.556 14.8058 241.432 20.6543 239.979 26.7222C229.454 38.9172 214.21 43.736 199.769 49.777C184.991 56.587 169.713 62.308 154.913 69.043C148.644 71.895 142.233 77.074 135.543 78.593C128.529 80.186 108.025 79.307 101.493 76.98C97.36 75.508 93.701 71.321 89.857 69.069C75.964 60.885 61.967 52.876 47.871 45.046C42.331 41.939 35.557 37.3095 29.352 36.0029C25.335 35.1572 20.502 36.1125 16.391 36.1901C12.186 36.2695 8.28198 35.3899 5.23998 32.2899C-0.461021 26.4802 0.539017 17.5278 0.741017 10.093C4.11902 6.26452 7.17601 3.31491 11.856 1.15871ZM226.475 26.8426C229.455 25.3404 231.267 23.9973 232.385 20.6609C232.927 19.0436 233.085 17.4939 232.333 15.9176C231.295 13.741 228.98 12.6029 226.759 12.0031C216.419 9.21001 164.18 10.8548 150.835 10.8507L62.703 10.8532C46.573 10.8626 30.326 10.4704 14.212 11.0738C12.189 13.4454 9.85898 16.84 10.107 20.138C10.241 21.9248 10.933 23.4532 12.469 24.4517C16.625 27.1538 24.623 26.9318 29.515 27.0399C43.447 27.3479 57.247 26.0937 71.155 25.9885L177.018 25.7853C186.117 25.7776 195.272 25.5499 204.362 25.8716C211.041 26.1079 220.043 28.036 226.475 26.8426ZM52.646 36.3824C59.927 42.62 88.842 59.025 98.187 62.307L98.263 54.016C87.009 50.441 61.981 35.9122 52.646 36.3824ZM205.013 34.9896C192.959 36.4646 179.489 43.4 167.996 47.517C160.636 50.154 153.068 52.126 145.732 54.824C144.796 57.179 145.02 58.905 145.266 61.349L146.411 62.397C159.924 56.945 173.09 50.533 186.376 44.547C192.897 41.608 199.636 39.1685 206.122 36.1793V35.4801L205.013 34.9896ZM106.928 53.014C106.963 58.386 107.141 63.798 106.955 69.165C116.944 69.189 126.955 69.357 136.942 69.16L136.84 53.188C126.881 52.686 116.895 52.915 106.928 53.014ZM77.229 35.0438C89.916 42.941 102.059 45.221 116.841 43.853C122.046 43.371 127.316 42.642 132.527 43.463C136.164 44.035 139.839 45.862 143.211 47.273C150.599 44.459 158.036 41.729 165.329 38.6755L177.958 35.4229C161.184 34.3499 144.173 34.8426 127.362 34.8322C110.704 34.8219 93.867 34.318 77.229 35.0438Z" fill="#4A4A4A"/>
</svg>
