<svg width="168" height="168" viewBox="0 0 168 168" fill="none" xmlns="http://www.w3.org/2000/svg">
<path d="M78.0392 0.193634C123.842 -2.90237 163.592 31.4916 167.112 77.2766C170.642 123.061 136.622 163.137 90.8872 167.09C44.5392 171.097 3.82221 136.522 0.251211 90.1277C-3.32079 43.7337 31.6242 3.33163 78.0392 0.193634ZM88.6342 157.811C129.582 155.184 160.602 119.771 157.822 78.8227C155.042 37.8737 119.512 6.98265 78.5892 9.91965C37.8802 12.8416 7.19719 48.1406 9.96319 88.8706C12.7302 129.601 47.9042 160.424 88.6342 157.811Z" fill="#4A4A4A"/>
<path d="M78.5142 16.2006C115.602 13.3426 148.062 40.9156 151.252 77.9846C154.432 115.054 127.162 147.766 90.1292 151.284C52.6302 154.846 19.4222 127.141 16.1942 89.6026C12.9662 52.0646 40.9582 19.0956 78.5142 16.2006ZM90.8742 141.672C122.752 137.785 145.472 108.821 141.672 76.9226C137.862 45.0236 108.952 22.2276 77.0562 25.9616C45.0482 29.7086 22.1642 58.7376 25.9862 90.7436C29.8082 122.751 58.8842 145.571 90.8742 141.672Z" fill="#4A4A4A"/>
</svg>
