<?xml version="1.0" encoding="iso-8859-1"?>
<!-- Uploaded to: SVG Repo, www.svgrepo.com, Generator: SVG Repo Mixer Tools -->
<svg fill="#000000" version="1.1" id="Layer_1" xmlns="http://www.w3.org/2000/svg" xmlns:xlink="http://www.w3.org/1999/xlink" 
	 viewBox="0 0 512 512" xml:space="preserve">
<g>
	<g>
		<path d="M459.216,248.082v-42.227h-79.175v42.227h-31.67v-31.67h-52.784v-47.505h42.227V68.618H174.186v100.289h42.227v47.505
			h-52.784v31.67h-31.67v-42.227H52.784v42.227H0v153.072h52.784v42.227h79.175v-42.227h31.67v31.67h184.742v-31.67h31.67v42.227
			h79.175v-42.227H512V248.082H459.216z M52.784,385.32H15.835V263.918h36.948V385.32z M116.124,427.546h-15.835v-160.99H84.454
			v160.99H68.619V221.691h47.505V427.546z M163.629,385.32h-31.67V263.918h31.67V385.32z M190.021,153.072V84.454h131.959v68.619
			H190.021z M279.753,168.907v47.505h-47.505v-47.505H279.753z M332.536,416.99H179.464V232.247h153.072V416.99z M380.041,385.32
			h-31.67V263.918h31.67V385.32z M443.381,427.546h-15.835v-160.99h-15.835v160.99h-15.835V221.691h47.505V427.546z M496.165,385.32
			h-36.948V263.918h36.948V385.32z"/>
	</g>
</g>
<g>
	<g>
		<path d="M200.577,253.361v142.515h110.845V253.361H200.577z M295.588,380.041h-79.175V269.196h79.175V380.041z"/>
	</g>
</g>
<g>
	<g>
		<rect x="229.608" y="285.031" width="52.784" height="15.835"/>
	</g>
</g>
<g>
	<g>
		<rect x="229.608" y="316.701" width="52.784" height="15.835"/>
	</g>
</g>
<g>
	<g>
		<rect x="229.608" y="348.371" width="21.113" height="15.835"/>
	</g>
</g>
<g>
	<g>
		<rect x="261.278" y="348.371" width="21.113" height="15.835"/>
	</g>
</g>
<g>
	<g>
		<rect x="248.082" y="97.649" width="15.835" height="42.227"/>
	</g>
</g>
<g>
	<g>
		<rect x="290.309" y="97.649" width="15.835" height="42.227"/>
	</g>
</g>
<g>
	<g>
		<rect x="205.856" y="97.649" width="15.835" height="42.227"/>
	</g>
</g>
</svg>