<svg width="58" height="203" viewBox="0 0 58 203" fill="none" xmlns="http://www.w3.org/2000/svg">
<path d="M13.5608 1.0058C20.4178 -0.038197 38.7318 -0.548495 45.2328 0.875905C48.9328 1.6866 52.1028 3.4729 54.0528 6.8202C58.9928 15.2913 56.9228 38.1273 54.3028 47.2953L46.8128 49.4413L44.3728 165.047C44.1628 173.297 48.1628 194.621 42.8728 200.544C38.9168 201.814 35.0178 202.326 30.8748 202.509C25.6998 202.739 18.5188 202.603 14.5578 198.705C9.7518 193.974 13.1478 170.913 13.0168 164.068C12.8848 157.211 11.2238 150.448 11.0618 143.587C10.8798 135.894 11.6438 128.084 11.6508 120.361L11.3988 49.8473C8.9988 49.5103 5.14376 49.2883 3.33776 47.5973C1.24976 45.6413 1.15077 40.8803 0.920772 38.2013C0.287772 30.8233 -1.70421 10.3925 3.35479 4.7716C6.30579 1.4921 9.45579 1.3378 13.5608 1.0058ZM19.9098 49.4833C19.8848 83.2713 21.0198 117.533 19.4338 151.256L30.7398 151.254L37.3908 151.072C36.5818 117.213 36.2578 82.6323 37.5378 48.7963C33.8448 48.8143 30.0348 48.6533 26.3768 49.1853C24.2208 49.3173 22.0698 49.4683 19.9098 49.4833ZM9.39178 40.4123L47.1828 40.5043C47.1528 34.7883 47.0428 29.0583 47.1128 23.3443C34.5158 23.3493 21.8888 23.1863 9.29181 23.4023L9.39178 40.4123ZM48.5128 14.3513C47.4728 12.1133 47.3428 11.3815 44.8728 10.5577C36.9748 7.92751 18.3918 9.2713 9.71978 10.0113L9.73877 13.5333C13.3538 16.0933 41.7728 14.4123 48.5128 14.3513Z" fill="#4A4A4A"/>
</svg>
