<svg width="314" height="613" viewBox="0 0 314 613" fill="none" xmlns="http://www.w3.org/2000/svg">
<path d="M148.67 1.09597C155.224 0.980972 164.149 -0.241019 170.165 2.78698C173.954 7.73298 172.08 55.17 172.043 64.339C177.809 64.27 184.029 63.784 189.743 64.579C193.345 65.08 197.068 66.351 199.23 69.468C203.822 76.087 201.349 87.191 199.823 94.56C197.229 96.393 194.364 97.836 191.582 99.362C191.186 136.545 191.128 173.73 191.408 210.914L195.276 210.831C201.019 210.736 206.789 210.681 211.1 215.183C218.372 222.777 215.188 246.855 214.871 257.108C221.273 259.954 227.131 264.163 232.162 269.015C245.432 281.814 253.541 300.542 253.951 318.971C259.628 319.923 263.915 321.082 268.862 324.131C270.162 335.01 272.2 370.763 266.401 379.123C263.61 383.147 257.865 383.886 253.422 384.715L253.526 429.086L278.038 429.083C277.789 419.996 275.633 393.9 281.053 387.138C283.499 384.087 287.9 382.981 291.624 382.57C297.287 381.945 305.257 382.063 309.795 386.07C311.722 387.749 312.917 390.115 313.123 392.662C313.998 403.211 313.445 414.23 313.452 424.835L313.49 483.198L313.585 557.085C313.597 570.033 314.145 583.269 313.407 596.189C313.208 599.675 313.063 605.661 310.503 608.25C307.242 611.548 301.613 612.159 297.209 612.141C293.458 612.125 283.712 611.599 281.113 608.755C275.377 602.482 277.769 574.448 277.871 565.018C261.903 564.821 245.831 564.746 229.87 565.217C210.079 586.237 192.094 593.471 164.239 598.822C159.208 599.153 153.989 599.115 148.959 598.749C123.761 596.916 100.192 583.791 83.858 564.801C67.935 564.648 52.011 564.659 36.089 564.832C36.016 576.311 39.905 598.275 33.859 607.893C32.672 609.781 30.05 610.777 27.987 611.32C21.597 613.003 10.845 613.068 5.09497 609.369C3.34997 608.246 1.88898 606.595 1.61798 604.479C0.660975 597.007 1.79302 588.345 1.66802 580.697C1.36202 561.931 -1.52803 391.116 2.99597 386.538C6.23097 383.265 12.882 382.915 17.208 382.834C21.903 382.747 30.567 382.371 34.028 386.199C37.886 390.466 36.229 421.493 36.213 429.105L62.013 429.096C61.43 414.299 61.862 399.317 61.815 384.499C59.069 384.016 56.335 383.393 53.604 382.825C50.425 379.639 47.833 376.329 45.259 372.641C43.483 360.145 44.212 336.007 46.285 323.408C50.538 320.566 54.473 320.214 59.287 319.027C61.493 316.149 61.789 309.407 62.611 305.771C67.91 282.321 80.569 269.763 100.092 257.537C100.015 256.706 99.955 255.873 99.911 255.04C99.47 245.316 97.424 219.679 104.113 212.912C107.907 209.073 119.06 210.735 124.152 210.864L123.944 100.532C121.576 99.189 118.939 97.783 117.357 95.499C113.88 90.481 113.079 82.032 113.952 76.125C114.686 71.167 115.66 68.804 119.687 65.77C127.536 63.918 135.401 64.272 143.408 64.344C143.384 52.987 139.842 12.157 144.436 3.82798C145.372 2.13098 146.92 1.64797 148.67 1.09597ZM69.72 320.055L70.56 320.519C74.852 322.918 76.404 326.98 80.016 329.327C83.081 331.32 134.15 330.082 140.945 329.497C145.936 324.618 139.296 318.006 154.052 318.097C157.916 318.12 165.061 318.154 167.881 321.17C171.373 324.903 168.599 329.308 175.194 329.962C178.701 330.31 182.351 330.115 185.875 330.07C195.515 330.126 228.285 332.031 234.55 328.326C237.982 323.759 239.713 320.96 245.301 318.736C241.547 299.822 235.726 282.566 218.953 271.152C212.929 267.053 206.123 264.509 198.971 263.234C185.003 260.743 169.838 261.892 155.667 261.898C143.294 261.902 130.673 261.413 118.334 262.133C101.983 266.026 89.023 273.991 79.971 288.483C73.864 298.259 71.725 308.904 69.72 320.055ZM168.641 586.485C218.477 580.091 253.633 534.41 247.063 484.585C240.493 434.76 194.699 399.758 144.909 406.506C95.37 413.221 60.59 458.747 67.127 508.322C73.664 557.897 119.055 592.847 168.641 586.485ZM133.129 216.866C139.759 216.871 180.491 217.811 183.049 216.055C183.091 216.026 183.11 215.973 183.14 215.933C183.225 198.977 182.065 182.111 181.931 165.163C181.756 142.99 182.612 121.056 182.911 98.925C165.931 98.816 148.95 98.817 131.97 98.927C133.231 121.703 133.074 144.385 133.109 167.187C133.135 183.718 133.524 200.344 133.129 216.866ZM70.224 384.633C70.364 406.579 71.048 428.688 70.286 450.615C81.789 427.041 100.656 407.868 125.818 399.034C148.783 390.971 176.384 392.621 198.201 403.288C205.381 406.843 212.091 411.276 218.178 416.486C230.064 425.436 238.6 438.377 245.205 451.561C245.839 430.921 246.455 405.209 243.866 384.912L243.045 384.645C236.966 382.644 236.442 377.641 233.755 376.755C229.028 375.196 176.712 375.13 172.714 376.793C171.029 377.495 169.588 380.445 168.253 381.752C163.432 386.471 152.557 384.909 146.466 383.719L145.756 383.574C143.441 381.175 141.176 378.582 138.695 376.364C120.783 374.888 102.14 375.948 84.15 376.079C81.167 380.795 78.8 382.762 73.258 384.003C72.25 384.226 71.238 384.436 70.224 384.633ZM9.59899 602.932C15.554 602.939 21.417 602.654 27.355 602.213C28.388 595.989 27.748 588.998 27.747 582.664L27.698 545.074L27.593 445.354C27.595 427.932 27.215 410.387 27.723 392.975C21.896 392.948 16.067 392.855 10.247 393.176L9.60699 504.748C9.57599 537.459 10.213 570.228 9.59899 602.932ZM287.7 393.237L286.526 549.237C286.53 562.456 284.627 590.344 287.217 601.549C289.361 603.185 292.741 603.064 295.369 603.148C298.398 602.947 301.448 602.822 304.452 602.368L304.008 455.694C303.996 438.681 305.337 421.645 305.025 404.68C304.957 400.98 304.868 396.997 303.5 393.519C302.002 392.277 301.461 392.234 299.507 392.351C298.753 392.396 297.986 392.571 297.248 392.713L287.7 393.237ZM230.125 346.782L260.499 346.808C260.487 344.649 260.911 341.319 259.903 339.413C245.277 338.81 230.562 339.182 215.921 339.194L141.671 339.185L102.895 339.107C97.568 339.056 91.438 338.111 86.214 338.721L85.319 338.824C75.321 339.908 64.826 337.916 54.979 339.599C53.858 341.754 54.188 344.477 54.183 346.86L230.125 346.782ZM206.162 253.492L206.215 241.382C173.649 240.114 140.907 241.378 108.313 240.942L108.357 252.803C140.865 252.924 173.715 251.762 206.162 253.492ZM236.989 556.275C244.262 556.074 251.537 555.993 258.813 556.033L278.528 555.983C277.883 516.299 277.375 476.389 277.859 436.703C269.741 436.698 261.604 436.577 253.488 436.735C253.413 447.131 253.087 457.632 253.571 468.016C254.065 478.59 255.506 489.314 255.328 499.892C255.013 518.732 248.028 540.947 236.989 556.275ZM124.296 89.418C145.682 88.243 167.268 88.946 188.688 88.808C190.061 88.54 190.568 88.727 191.339 87.54C193.754 83.823 192.417 77.84 192.089 73.652C170.607 73.552 149.225 72.517 127.716 73.164C125.579 74.534 124.118 75.913 123.616 78.505C122.968 81.855 123.888 86.043 124.296 89.418ZM260.535 366.665L260.487 355.697C253.217 355.701 246.023 356.36 238.768 356.492C222.876 356.781 206.925 356.601 191.03 356.501C145.658 356.215 100.221 354.833 54.834 355.781L54.893 366.984L192.548 366.849L237.275 366.791C244.944 366.775 252.894 367.196 260.535 366.665ZM36.325 437.045C36.034 476.654 36.738 516.294 36.195 555.895C41.906 555.911 75.096 557.088 77.573 554.915C57.375 522.436 58.971 505.873 61.353 469.482C62.06 458.684 61.93 447.83 61.911 437.013C53.365 436.775 44.871 436.834 36.325 437.045ZM206.272 231.984C206.121 230.107 206.295 228.234 205.199 226.677C193.856 225.12 181.497 225.997 170.025 225.967C149.73 225.912 129.414 225.68 109.121 225.885C109.209 227.765 108.797 230.235 110.155 231.555C121.994 233.355 134.766 232.055 146.752 232.032C166.562 231.992 186.473 232.414 206.272 231.984Z" fill="#4A4A4A"/>
<path d="M145.406 420.415C187.066 413.7 226.228 442.188 232.678 483.9C239.127 525.611 210.398 564.602 168.657 570.789C127.288 576.92 88.73 548.496 82.338 507.157C75.946 465.818 104.118 427.071 145.406 420.415ZM172.546 530.107C177.869 533.644 181.449 537.229 182.781 543.679C183.792 548.574 183.492 553.908 183.47 558.894C189.846 555.387 195.355 551.803 200.551 546.618C214.647 531.555 222.874 513.943 222.271 493.002C221.694 472.938 212.3 455.587 197.896 442.019C193.412 437.796 188.524 433.539 182.309 432.369C182.571 435.608 182.802 438.834 183.351 442.039C180.329 447.432 177.072 451.657 172.681 455.977C172.456 480.686 172.411 505.397 172.546 530.107ZM114.823 548.601C119.985 552.509 125.556 555.844 131.439 558.546C131.048 551.262 129.656 541.323 134.99 535.423C136.621 533.619 138.516 531.969 140.403 530.442L140.023 455.768C136.009 453.277 133.482 450.217 130.717 446.45C130.754 442.808 131.377 438.036 130.245 434.591L129.137 434.206C110.548 446.401 98.336 460.441 93.726 482.637C90.002 500.564 94.453 520.382 104.483 535.629C107.516 540.24 111.127 544.509 114.823 548.601ZM149.435 452.453C149.434 465.618 150.509 478.834 150.29 491.966C150.044 506.681 148.56 521.45 148.338 536.156C145.344 538.361 142.285 540.511 139.358 542.802L166.897 542.688L170.663 542.457L171.152 541.495C169.177 538.467 165.854 536.575 163.15 534.24L163.033 452.095L171.168 443.945C161.985 443.486 152.592 443.371 143.401 443.775L141.294 444.354C142.414 447.621 146.888 450.096 149.435 452.453ZM148.563 427.209C144.705 428.102 141.596 428.81 139.1 432.173L139.006 433.662C141.322 436.041 145.948 435.988 149.077 436.038C155.298 436.139 161.482 435.034 167.687 435.045C170.164 435.022 172.263 435.209 174.443 433.854C175.511 432.322 175.733 432.26 175.595 430.311C171.446 426.301 161.412 426.962 156.05 427.045C153.568 427.084 151.039 427.312 148.563 427.209ZM140.246 551.294C139.896 554.284 138.615 558.946 139.821 561.669L142.181 562.374C153.442 563.67 163.056 563.756 174.249 561.342C174.026 558.678 174.413 553.077 172.975 550.994L171.16 551.033C160.639 552.317 150.8 551.975 140.246 551.294Z" fill="#4A4A4A"/>
</svg>
