<svg width="263" height="131" viewBox="0 0 263 131" fill="none" xmlns="http://www.w3.org/2000/svg">
<path d="M119.45 1.58899C126.489 0.575987 140.503 -0.828028 147.079 1.93597C149.793 3.07597 151.762 5.15301 152.798 7.90301C154.606 12.705 154.619 22.946 152.411 27.468C150.272 29.11 148.046 28.952 145.411 29.282C145.382 41.566 146.542 122.271 144.449 127.699C140.071 129.598 135.827 129.946 131.093 130.026C127.766 130.081 122.897 129.825 120.481 127.26C115.295 121.755 119.22 42.896 119.042 29.363L111.792 28.67C111.033 21.476 108.382 10.575 112.804 4.19397C114.214 2.15897 117.182 2.00099 119.45 1.58899ZM138.314 71.915C138.11 57.696 137.617 43.328 138.005 29.12C133.775 29.087 129.528 28.973 125.3 29.095C125.297 43.196 124.965 57.393 125.493 71.48C129.947 72.126 133.837 72.391 138.314 71.915ZM126.334 21.724L138.293 21.737C138.465 17.638 138.534 13.536 138.501 9.43298C134.703 9.31898 130.89 9.13301 127.092 9.32001C125.628 12.558 126.344 18.132 126.334 21.724Z" fill="#4A4A4A"/>
<path d="M12.903 0.973989C20.03 0.681989 31.825 -1.05599 38.253 1.74901C41.055 2.97201 42.669 5.14296 43.635 7.98296C45.296 12.867 45.156 23.132 42.9 27.704C40.712 29.632 38.353 29.397 35.515 29.759C35.209 44.313 35.045 59.063 35.479 73.614C35.931 88.779 36.985 103.965 36.27 119.15C36.074 123.31 35.951 125.497 32.729 128.435C31.366 128.754 29.998 128.895 28.611 129.048C22.734 129.696 15.048 130.996 10.08 127.02C6.83703 120.334 9.58904 42.977 10.09 30.318C7.06304 29.681 4.41399 29.131 2.78199 26.271C-0.963006 19.705 1.47501 9.55799 3.09101 2.60698C6.31301 1.81598 9.62103 1.43799 12.903 0.973989ZM17.209 29.413L17.134 71.99L28.168 72.051L28.178 29.331L17.209 29.413ZM17.144 21.703L27.989 21.699L28.064 9.91399C24.465 9.90899 20.849 9.83098 17.253 9.92498L17.144 21.703Z" fill="#4A4A4A"/>
<path d="M65.957 0.883023C73.637 0.813023 83.553 -0.447985 90.918 1.52401C93.513 2.21901 95.082 2.89005 96.386 5.39505C99.234 10.868 99.606 19.36 97.443 25.121C96.058 28.811 93.009 29.654 89.649 31.059C89.223 49.004 89.004 67.0921 89.394 85.0331C89.58 93.5921 90.326 102.109 90.361 110.68C90.381 115.716 91.235 124.01 87.524 127.751C87.386 127.814 87.25 127.882 87.11 127.941C86.877 128.038 86.64 128.124 86.406 128.219C82.954 129.615 79.228 129.733 75.54 129.793C71.662 129.857 67.571 129.481 64.646 126.676C61.929 114.583 64.152 100.333 64.168 87.966C64.192 68.783 63.614 49.57 63.491 30.38L55.428 29.128C55.044 22.179 52.948 10.372 57.208 4.60605C59.429 1.60005 62.532 1.42102 65.957 0.883023ZM70.329 29.2801L70.356 71.105C72.843 71.16 79.708 71.986 81.541 70.521C85.21 58.359 83.145 42.1371 83.056 29.3871C78.816 29.3441 74.568 29.2381 70.329 29.2801ZM70.267 21.738C73.904 21.728 78.568 22.279 82.072 21.482C82.305 17.567 82.587 13.715 83.174 9.83505L70.342 9.82205L70.267 21.738Z" fill="#4A4A4A"/>
<path d="M174.708 0.857967C185.174 0.614967 195.253 0.683004 205.64 2.096C208.487 11.205 207.92 19.651 207.096 28.968L198.125 29.259C197.909 43.815 198.816 58.087 199.032 72.597C199.301 90.667 199 108.787 199.076 126.865C197.918 127.564 196.732 128.279 195.48 128.798C188.974 131.5 180.924 129.895 174.663 127.432C171.999 95.137 173.004 62.516 173.011 30.121C169.851 29.308 166.936 28.677 165.255 25.59C161.804 19.254 164.296 9.53899 166.143 2.96099C168.931 2.01499 171.833 1.47597 174.708 0.857967ZM180.426 71.93L191.889 71.977L191.682 29.206L180.334 29.208L180.426 71.93ZM180.47 21.754C183.837 21.764 189.049 22.472 192.172 21.431L192.207 9.83899C188.313 9.85999 184.396 9.78698 180.506 9.91198L180.47 21.754Z" fill="#4A4A4A"/>
<path d="M232.739 1.04901C238.254 1.01601 253.329 -0.684008 257.473 2.44799C260.129 4.45499 261.29 8.2 261.863 11.354C262.733 16.144 262.879 23.489 259.87 27.591C258.381 29.62 255.553 29.78 253.244 30.174L252.917 96.753C252.904 104.698 254.129 118.094 252.587 125.583C252.162 127.648 250.441 128.184 248.794 129.186C245.752 129.646 242.49 129.779 239.406 129.805C236.487 129.83 232.665 129.465 230.565 127.26C226.456 122.947 227.845 42.667 227.846 29.596C225.413 29.255 223.021 28.666 220.624 28.132C220.094 24.539 219.704 20.927 219.453 17.305C219.133 12.651 218.698 7.42398 222.239 3.76098C224.998 0.90798 229.055 1.23801 232.739 1.04901ZM235.235 70.647C239.026 70.846 242.838 71.137 246.633 70.959C245.737 57.066 245.419 43.142 245.68 29.223L235.254 29.544L235.235 70.647ZM235.279 20.926L244.437 20.917L246.371 20.676C247.236 18.184 248.011 14.543 246.954 12.051C246.605 11.227 246.118 10.556 245.567 9.86199C243.707 9.23799 242.079 9.268 240.131 9.289C237.838 9.45 237.121 9.07998 235.541 10.839C234.608 14.172 235.361 17.528 235.279 20.926Z" fill="#4A4A4A"/>
</svg>
