<svg width="247" height="247" viewBox="0 0 247 247" fill="none" xmlns="http://www.w3.org/2000/svg">
<path d="M116.979 0.155717C184.816 -3.22928 242.586 48.9827 246.066 116.834C249.546 184.685 197.426 242.535 129.595 246.113C61.6298 249.697 3.65173 197.44 0.164726 129.453C-3.32327 61.4657 49.0038 3.54772 116.979 0.155717ZM129.588 236.242C191.836 232.702 239.486 179.441 236.116 117.166C232.736 54.8907 179.616 7.09073 117.348 10.2997C54.8448 13.5207 6.83872 66.8987 10.2247 129.408C13.6107 191.918 67.1028 239.795 129.588 236.242Z" fill="#4A4A4A"/>
<path d="M118.972 53.9877C156.886 51.5577 189.606 80.2797 192.126 118.196C194.646 156.111 166.006 188.913 128.11 191.523C90.0818 194.142 57.1537 165.38 54.6257 127.337C52.0977 89.2927 80.9318 56.4247 118.972 53.9877ZM131.096 181.592C163.316 177.359 186.096 147.925 182.116 115.664C178.136 83.4038 148.886 60.3927 116.601 64.1237C83.9618 67.8957 60.6468 97.5468 64.6718 130.164C68.6968 162.781 98.5198 185.871 131.096 181.592Z" fill="#4A4A4A"/>
<path d="M116.194 70.4737C145.236 66.3277 172.096 86.6407 176.016 115.72C179.936 144.798 159.426 171.507 130.326 175.211C101.538 178.876 75.1828 158.626 71.3008 129.858C67.4178 101.09 87.4628 74.5747 116.194 70.4737ZM128.066 166.506C151.936 164.009 169.296 142.675 166.896 118.788C164.486 94.9007 143.236 77.4527 119.341 79.7617C95.3158 82.0837 77.7537 103.494 80.1697 127.515C82.5857 151.536 104.06 169.018 128.066 166.506Z" fill="#4A4A4A"/>
<path d="M186.356 42.2517C194.986 41.7167 202.456 48.2057 203.126 56.8277C203.796 65.4497 197.436 73.0187 188.826 73.8307C183.136 74.3687 177.586 71.7937 174.326 67.0957C171.066 62.3967 170.596 56.3047 173.086 51.1567C175.576 46.0087 180.646 42.6047 186.356 42.2517ZM190.206 64.9997C192.566 64.0027 194.186 61.7927 194.426 59.2457C194.666 56.6977 193.496 54.2237 191.366 52.8007C189.246 51.3777 186.506 51.2357 184.246 52.4317C180.946 54.1737 179.606 58.2047 181.206 61.5737C182.806 64.9427 186.776 66.4527 190.206 64.9997Z" fill="#4A4A4A"/>
<path d="M186.996 172.395C195.606 172.202 202.766 178.964 203.076 187.57C203.376 196.175 196.706 203.427 188.106 203.841C182.446 204.114 177.076 201.319 174.056 196.525C171.026 191.732 170.816 185.68 173.496 180.685C176.176 175.69 181.336 172.523 186.996 172.395ZM190.466 195.559C192.686 193.176 193.986 191.73 193.906 188.27C193.856 185.924 192.946 183.904 191.166 182.363C189.696 181.093 187.616 180.632 185.716 180.512C183.106 183.108 180.986 185.366 181.096 189.341C181.146 191.045 181.786 192.644 183.076 193.779C185.106 195.552 187.926 195.653 190.466 195.559Z" fill="#4A4A4A"/>
<path d="M55.5878 43.0637C61.2068 41.7797 67.0778 43.6757 70.8868 48.0027C74.6948 52.3307 75.8298 58.3957 73.8438 63.8087C71.8578 69.2207 67.0698 73.1117 61.3668 73.9477C56.9878 74.5897 52.5408 73.3557 49.1188 70.5477C45.6968 67.7397 43.6168 63.6187 43.3898 59.1977C42.9978 51.5697 48.1438 44.7637 55.5878 43.0637ZM61.4078 64.8767C65.0828 63.4207 66.8688 59.2487 65.3848 55.5847C63.9008 51.9197 59.7158 50.1667 56.0638 51.6797C52.4518 53.1767 50.7228 57.3057 52.1908 60.9297C53.6578 64.5537 57.7728 66.3157 61.4078 64.8767Z" fill="#4A4A4A"/>
<path d="M54.4347 173.448C59.8607 171.799 65.7537 173.215 69.8387 177.149C73.9237 181.083 75.5607 186.92 74.1177 192.405C72.6747 197.891 68.3777 202.166 62.8857 203.58C58.4217 204.73 53.6767 203.851 49.9197 201.179C46.1617 198.508 43.7738 194.314 43.3918 189.719C42.7818 182.37 47.3817 175.593 54.4347 173.448ZM60.9407 195.284C63.3847 194.418 65.1637 192.288 65.5787 189.728C65.9947 187.168 64.9817 184.584 62.9377 182.989C60.8927 181.394 58.1408 181.04 55.7588 182.067C52.2428 183.584 50.5628 187.616 51.9598 191.182C53.3578 194.748 57.3307 196.562 60.9407 195.284Z" fill="#4A4A4A"/>
</svg>
