<svg width="168" height="168" viewBox="0 0 168 168" fill="none" xmlns="http://www.w3.org/2000/svg">
<path d="M79.7333 0.0896511C125.815 -2.02735 164.895 33.6057 167.043 79.6977C169.19 125.79 133.591 164.903 87.5122 167.082C41.3902 169.262 2.24123 133.614 0.0922345 87.4787C-2.05677 41.3437 33.6083 2.20965 79.7333 0.0896511ZM91.9002 157.443C132.637 152.736 161.82 115.849 157.035 75.1117C152.25 34.3737 115.315 5.25569 74.5972 10.1217C33.9902 14.9737 4.97825 51.7937 9.74925 92.4187C14.5212 133.045 51.2752 162.137 91.9002 157.443Z" fill="#4A4A4A"/>
<path d="M80.2633 16.1497C117.66 14.4117 149.35 43.4027 150.947 80.8167C152.544 118.23 123.44 149.817 86.0313 151.274C48.8203 152.723 17.4442 123.8 15.8552 86.5857C14.2672 49.3717 43.0643 17.8787 80.2633 16.1497ZM89.7472 141.796C121.828 138.269 144.957 109.368 141.374 77.2847C137.791 45.2027 108.856 22.1187 76.7883 25.7597C44.7993 29.3907 21.7913 58.2447 25.3653 90.2477C28.9403 122.25 57.7462 145.315 89.7472 141.796Z" fill="#4A4A4A"/>
</svg>
